<svg width="15" height="15" viewBox="0 0 15 15" xmlns="http://www.w3.org/2000/svg">
    <path d="M8.27 0a.75.75 0 0 1 .75.75v.952c.535.14 1.04.35 1.505.622l.672-.672a.75.75 0 0 1 1.061 0l1.09 1.09a.75.75 0 0 1 0 1.06l-.672.673c.272.465.482.97.622 1.504h.952a.75.75 0 0 1 .75.75V8.27a.75.75 0 0 1-.75.75h-.952a5.955 5.955 0 0 1-.622 1.504l.672.673a.75.75 0 0 1 0 1.06l-1.09 1.09a.75.75 0 0 1-1.06 0l-.673-.672c-.466.272-.97.482-1.504.622v.952a.75.75 0 0 1-.75.75H6.729a.75.75 0 0 1-.75-.75v-.952a5.953 5.953 0 0 1-1.504-.622l-.672.673a.75.75 0 0 1-1.061 0l-1.09-1.09a.75.75 0 0 1 0-1.061l.672-.673a5.953 5.953 0 0 1-.622-1.504H.75a.75.75 0 0 1-.75-.75V6.73a.75.75 0 0 1 .75-.75h.952c.14-.534.35-1.038.622-1.503l-.673-.673a.75.75 0 0 1 0-1.06l1.09-1.091a.75.75 0 0 1 1.061 0l.673.672c.465-.272.97-.482 1.504-.622V.75a.75.75 0 0 1 .75-.75zm-.769 4.748a2.752 2.752 0 1 0 0 5.504 2.752 2.752 0 0 0 0-5.504z" fill="#A6B7D4" fill-rule="nonzero"/>
</svg>
